<?xml version="1.0" encoding="utf-8"?>
<!-- Generator: Adobe Illustrator 18.0.0, SVG Export Plug-In . SVG Version: 6.00 Build 0)  -->
<!DOCTYPE svg PUBLIC "-//W3C//DTD SVG 1.1//EN" "http://www.w3.org/Graphics/SVG/1.1/DTD/svg11.dtd">
<svg version="1.1" id="图层_1" xmlns="http://www.w3.org/2000/svg" xmlns:xlink="http://www.w3.org/1999/xlink" x="0px" y="0px"
	 viewBox="268 67 220 222.1" enable-background="new 268 67 220 222.1" xml:space="preserve">
<g id="account-box">
	<path d="M271.5,97v168c0,13.2,10.8,24,24,24h168c13.2,0,24-10.8,24-24V97c0-13.2-10.8-24-24-24h-168C282.3,73,271.5,83.8,271.5,97z
		 M415.5,145c0,20.4-15.6,36-36,36s-36-15.6-36-36s15.6-36,36-36S415.5,124.6,415.5,145z M307.5,241c0-24,48-37.2,72-37.2
		s72,13.2,72,37.2v12h-144V241z"/>
</g>
</svg>
